<?xml version="1.0" encoding="UTF-8" standalone="no"?>
<!DOCTYPE svg PUBLIC "-//W3C//DTD SVG 1.1//EN" "http://www.w3.org/Graphics/SVG/1.1/DTD/svg11.dtd">
<svg version="1.1" xmlns="http://www.w3.org/2000/svg" xmlns:xlink="http://www.w3.org/1999/xlink" preserveAspectRatio="xMidYMid meet" viewBox="0 0 640 640" width="1080" height="1080"><defs><path d="M209.28 397.82C214.33 397.82 218.1 393.17 217.05 388.23C216.01 383.3 214.02 373.96 212.76 367.99C212.21 365.41 209.93 363.56 207.29 363.56C192.52 363.56 155.62 363.56 96.58 363.56C144.39 282.12 174.28 231.22 186.23 210.86C188.37 207.23 185.74 202.64 181.52 202.64C173.88 202.64 157.63 202.64 149.27 202.64C145.57 202.64 142.15 204.6 140.26 207.79C120.52 241.22 64.79 335.62 45.17 368.87C42.77 372.93 39.87 376.67 36.54 380C32.98 383.56 37.54 379 36.54 380C29.96 386.58 34.62 397.82 43.92 397.82C78.95 397.82 171.17 397.82 209.28 397.82Z" id="a1VFJqwYn0"></path><path d="M240.62 393.86C241.23 398 246.56 399.29 248.99 395.9C276.72 357.25 345.72 261.06 371.58 225.02C378.29 215.66 371.61 202.64 360.1 202.64C344.39 202.64 305.12 202.64 242.29 202.64C231.12 202.64 224.14 202.64 221.34 202.64C216.77 202.64 213.26 206.7 213.92 211.23C219.59 250.03 235.03 355.62 240.62 393.86Z" id="a2h7qDFBa9"></path><path d="M607.79 206.6C607.19 202.47 601.86 201.17 599.42 204.56C571.69 243.22 502.69 339.4 476.83 375.45C470.12 384.8 476.81 397.82 488.32 397.82C504.03 397.82 543.29 397.82 606.13 397.82C617.3 397.82 624.28 397.82 627.07 397.82C631.65 397.82 635.15 393.76 634.49 389.23C628.82 350.43 613.38 244.84 607.79 206.6Z" id="hBnOyVu74"></path><path d="M453.52 397.82C458.27 397.82 461.55 393.08 459.88 388.64C458 383.63 454.31 373.81 452.05 367.8C451.09 365.25 448.65 363.56 445.92 363.56C432.51 363.56 398.97 363.56 345.3 363.56L433.85 239.92C497.58 225.57 537.42 216.6 553.35 213.01C559.46 211.63 558.46 202.64 552.2 202.64C533.87 202.64 495.93 202.64 470.07 202.64C470.07 202.64 451.01 202.64 451.01 202.64C444.81 202.64 437.72 202.64 432.01 202.64C424.46 202.64 417.36 206.19 412.82 212.22C388.31 244.77 319.65 335.98 294.55 369.31C294.55 369.31 285.26 380 285.26 380C281.7 383.56 286.27 379 285.26 380C278.69 386.58 283.34 397.82 292.64 397.82C326.78 397.82 416.31 397.82 453.52 397.82Z" id="e37Cjd1vcZ"></path></defs><g><g><g><use xlink:href="#a1VFJqwYn0" opacity="1" fill="#000000" fill-opacity="1"></use><g><use xlink:href="#a1VFJqwYn0" opacity="1" fill-opacity="0" stroke="#000000" stroke-width="1" stroke-opacity="1"></use></g></g><g><use xlink:href="#a2h7qDFBa9" opacity="1" fill="#000000" fill-opacity="1"></use><g><use xlink:href="#a2h7qDFBa9" opacity="1" fill-opacity="0" stroke="#000000" stroke-width="1" stroke-opacity="1"></use></g></g><g><use xlink:href="#hBnOyVu74" opacity="1" fill="#000000" fill-opacity="1"></use><g><use xlink:href="#hBnOyVu74" opacity="1" fill-opacity="0" stroke="#000000" stroke-width="1" stroke-opacity="1"></use></g></g><g><use xlink:href="#e37Cjd1vcZ" opacity="1" fill="#000000" fill-opacity="1"></use><g><use xlink:href="#e37Cjd1vcZ" opacity="1" fill-opacity="0" stroke="#000000" stroke-width="1" stroke-opacity="1"></use></g></g></g></g></svg>