<?xml version="1.0" encoding="UTF-8" standalone="no"?>
<!DOCTYPE svg PUBLIC "-//W3C//DTD SVG 1.1//EN" "http://www.w3.org/Graphics/SVG/1.1/DTD/svg11.dtd">
<svg version="1.1" xmlns="http://www.w3.org/2000/svg" xmlns:xlink="http://www.w3.org/1999/xlink" preserveAspectRatio="xMidYMid meet" viewBox="0 0 640 640" width="1080" height="1080"><defs><path d="M283.22 399.42C288.27 399.42 292.04 394.77 290.99 389.83C289.94 384.9 287.96 375.56 286.7 369.6C286.15 367.01 283.87 365.16 281.22 365.16C266.46 365.16 229.56 365.16 170.52 365.16C218.33 283.72 248.21 232.82 260.17 212.46C262.3 208.83 259.68 204.24 255.46 204.24C247.82 204.24 231.56 204.24 223.21 204.24C219.51 204.24 216.08 206.2 214.2 209.39C194.46 242.82 138.73 337.22 119.11 370.47C116.71 374.53 113.81 378.27 110.48 381.6C106.91 385.16 111.48 380.6 110.48 381.6C103.9 388.18 108.56 399.42 117.86 399.42C152.89 399.42 245.11 399.42 283.22 399.42Z" id="b8v3KhfL1o"></path><path d="M318.1 392.2C318.72 396.37 324.09 397.69 326.57 394.28C354.29 356.27 423.09 261.91 448.92 226.49C455.66 217.24 449.05 204.24 437.6 204.24C421.9 204.24 382.63 204.24 319.8 204.24C308.62 204.24 301.64 204.24 298.85 204.24C294.28 204.24 290.78 208.31 291.45 212.83C297.12 250.98 312.52 354.61 318.1 392.2Z" id="fMaDsg7g"></path></defs><g><g><g><use xlink:href="#b8v3KhfL1o" opacity="1" fill="#000000" fill-opacity="1"></use><g><use xlink:href="#b8v3KhfL1o" opacity="1" fill-opacity="0" stroke="#000000" stroke-width="1" stroke-opacity="1"></use></g></g><g><use xlink:href="#fMaDsg7g" opacity="1" fill="#000000" fill-opacity="1"></use><g><use xlink:href="#fMaDsg7g" opacity="1" fill-opacity="0" stroke="#000000" stroke-width="1" stroke-opacity="1"></use></g></g></g></g></svg>